<?xml version="1.0" encoding="UTF-8" standalone="no"?>
<!-- Created with Inkscape (http://www.inkscape.org/) -->

<svg
   xmlns:dc="http://purl.org/dc/elements/1.1/"
   xmlns:cc="http://creativecommons.org/ns#"
   xmlns:rdf="http://www.w3.org/1999/02/22-rdf-syntax-ns#"
   xmlns:svg="http://www.w3.org/2000/svg"
   xmlns="http://www.w3.org/2000/svg"
   xmlns:sodipodi="http://sodipodi.sourceforge.net/DTD/sodipodi-0.dtd"
   xmlns:inkscape="http://www.inkscape.org/namespaces/inkscape"
   version="1.1"
   id="svg6233"
   xml:space="preserve"
   width="800"
   height="800"
   viewBox="0 0 800 800"
   sodipodi:docname="Canada-painted-flag-publicdomainvectors.org.svg"
   inkscape:version="0.92.4 (5da689c313, 2019-01-14)"><metadata
     id="metadata6239"><rdf:RDF><cc:Work
         rdf:about=""><dc:format>image/svg+xml</dc:format><dc:type
           rdf:resource="http://purl.org/dc/dcmitype/StillImage" /><dc:title></dc:title></cc:Work></rdf:RDF></metadata><defs
     id="defs6237"><clipPath
       clipPathUnits="userSpaceOnUse"
       id="clipPath6249"><path
         d="M 0,600 H 600 V 0 H 0 Z"
         id="path6247"
         inkscape:connector-curvature="0" /></clipPath></defs><sodipodi:namedview
     pagecolor="#ffffff"
     bordercolor="#666666"
     borderopacity="1"
     objecttolerance="10"
     gridtolerance="10"
     guidetolerance="10"
     inkscape:pageopacity="0"
     inkscape:pageshadow="2"
     inkscape:window-width="1920"
     inkscape:window-height="1018"
     id="namedview6235"
     showgrid="false"
     inkscape:zoom="0.81316558"
     inkscape:cx="423.72881"
     inkscape:cy="410.16949"
     inkscape:window-x="-8"
     inkscape:window-y="-8"
     inkscape:window-maximized="1"
     inkscape:current-layer="g6241" /><g
     id="g6241"
     inkscape:groupmode="layer"
     inkscape:label="Canada-painted-flag-publicdomainvectors.org"
     transform="matrix(1.3333333,0,0,-1.3333333,0,800)"><g
       id="g6243"><g
         id="g6245"
         clip-path="url(#clipPath6249)"><path
           d="M 600,0 H 0 v 599.359 h 600 z"
           style="fill:#231f20;fill-opacity:1;fill-rule:nonzero;stroke:none"
           id="path6251"
           inkscape:connector-curvature="0" /><path
           d="m 340.15,251.199 c 0.02,0.025 0.039,0.054 0.063,0.092 -0.02,-0.032 -0.041,-0.062 -0.063,-0.092"
           style="fill:#296eb9;fill-opacity:1;fill-rule:nonzero;stroke:none"
           id="path6253"
           inkscape:connector-curvature="0" /><path
           d="m 145.125,490.643 c -2.711,-1.196 -6.157,-1.939 -9.161,-3.062 -6.115,-2.281 -12.182,-5.477 -17.328,-7.133 -2.638,-0.844 -7.074,-4.315 -9.167,0 0.628,3.11 5.481,1.997 6.115,5.098 -3.087,-0.246 -7.432,-5.625 -9.18,-1.017 0.708,2.017 6.08,-0.635 5.1,3.052 -4.01,1.161 -7.079,-3.07 -8.149,1.023 0.323,2.394 3.152,2.279 4.079,4.08 -5.397,-1.208 -4.607,-2.519 -7.144,1.018 -2.525,3.529 -4.583,9.525 -8.15,7.131 2.251,-0.874 4.159,-7.323 2.048,-9.166 -2.096,4.362 -3.675,9.221 -8.15,11.202 -0.311,-2 1.369,-2.023 2.033,-3.053 0.826,-1.293 1.347,-3.715 2.036,-5.098 1.818,-3.643 7.298,-9.974 5.097,-13.247 -0.455,5.133 -3.351,6.515 -5.097,9.172 -2.256,3.423 -2.712,7.875 -6.109,10.19 2.601,-6.491 4.265,-9.98 7.126,-16.304 -0.174,0.394 0.634,1.184 1.016,0 0.108,-0.317 2.06,-3.914 2.048,-5.099 -0.013,-0.706 -1.191,-1.61 -1.031,-2.039 1.031,-2.633 6.811,-4.028 3.064,-7.127 -2.298,0.424 0.155,5.584 -3.064,5.097 -0.897,-3.039 3.184,-6.211 1.031,-7.138 -2.072,3.375 -2.609,8.263 -6.117,10.19 -1.399,-2.321 2.628,-3.835 0,-4.075 -2.344,4.315 -3.864,9.663 -6.109,14.266 -0.879,1.795 -1.406,3.978 -2.039,5.098 -3.339,5.84 0.885,-6.079 -1.025,-7.139 1.466,-2.25 2.484,1.28 3.064,-1.017 -0.305,-2.747 4.255,-5.822 1.017,-8.155 0.06,2.201 -1.203,8.19 -3.056,5.097 3.255,-0.767 -1.066,-7.533 1.017,-7.127 0,0.564 0.819,1.155 1.022,0 -0.173,-3.034 2.358,-6.828 1.017,-11.213 -1.28,4.314 -3.081,10.681 -6.114,10.19 -0.695,2.704 -1.61,5.194 -3.057,7.133 -3.508,-2.938 3.266,-7.671 0,-10.184 0.586,3.511 -3.364,6.078 -5.094,9.161 -1.04,1.873 -1.178,4.582 -2.04,6.115 -0.631,1.133 -2.419,2.078 -3.009,2.999 0.476,-0.485 1.012,3.714 -1.066,1.081 2.915,-1.183 -1.646,-1.183 -2.035,0 -0.915,-3.38 5.656,-4.421 3.053,-6.114 0.071,2.507 -2.376,1.561 -4.074,3.052 -2.909,2.565 -5.195,8.34 -8.15,7.137 3.458,-4.008 7.897,-7.043 9.171,-13.247 -2.134,0.287 -2.314,3.26 -3.062,4.075 -1.873,2.07 -1.693,1.196 -4.075,2.035 -0.096,-4.507 5.565,-3.263 5.097,-8.151 0.305,-2.346 -2.943,-1.125 -3.057,-3.051 1.3,-1.489 4.596,-6.175 3.057,-7.132 -2.806,1.944 -6.078,3.44 -7.131,7.132 -5.721,0.18 3.542,-3.435 0,-4.081 -0.013,1.03 -1.79,1.285 -2.041,0 3.07,-3.057 9.257,-8.378 7.138,-13.235 -0.67,3.41 -3.901,4.248 -5.097,7.127 0.669,-6.817 5.917,-14.435 4.074,-20.38 -1.34,3.998 -2.029,10.926 -5.097,10.194 0.281,1.3 1.023,1.407 1.023,3.059 0,5.827 -1.389,-2.34 -1.023,-2.041 -0.767,-0.641 -4.937,4.103 -5.093,3.051 0.131,-3.645 5.708,-7.139 2.034,-11.207 0.204,2.92 0.133,5.553 -3.051,5.098 -1.251,-2.464 2.417,-2.129 2.035,-4.075 -0.066,-0.352 -2.465,-1.058 -2.035,-2.046 0.269,-0.599 3.734,-0.287 3.051,-2.033 -2.112,-0.569 -2.153,-1.592 -1.016,-3.059 -1.238,0.323 -3.507,-2.944 -1.018,-3.057 0.229,0.795 0.025,2.017 1.018,2.039 0.586,-3.296 -0.308,-5.128 -2.035,-6.114 1.241,-3.126 2.168,-7.249 2.854,-11.135 h 1.212 c -0.02,-1.818 -1.225,-5.124 -1.015,-6.859 0.359,-2.813 2.19,-5.398 2.041,-8.145 -0.06,-1.232 -2.137,-1.058 -2.041,-2.046 0.014,-0.077 1.88,0.086 2.041,0 2.221,-0.994 -0.999,-2.357 -1.017,-2.034 0.125,-2.053 1.813,-4.332 2.035,-7.127 0.113,-1.388 -1.215,-3.494 -1.018,-5.091 0.037,-0.276 1.873,-1.216 2.041,-2.046 -0.013,0.054 -1.334,-1.628 -1.023,-3.051 1.621,-7.283 2.65,-17.156 2.04,-26.496 -1.927,0.119 -0.713,3.37 -3.058,3.057 -0.017,-4.578 3.777,-7.389 0,-10.191 3.393,0.707 1.633,-2.1 1.018,-3.051 6.12,-0.466 2.326,-2.502 2.04,-6.116 3.889,-2.212 3.195,0.94 5.092,3.065 0.7,-6.577 -0.664,-11.775 3.062,-12.238 -4.181,-2.925 -0.376,-10.008 0,-15.268 0.056,-0.945 -1.016,-1.892 -1.021,-2.049 -0.06,-2.446 2.955,-6.169 0,-7.13 -1.037,4.177 -1.79,8.814 -2.041,11.207 -0.515,4.941 0.868,12.476 -4.075,13.24 0.682,-11.882 2.92,-27.635 2.04,-37.696 0.054,1.911 -0.784,2.161 -2.04,1.024 0.06,1.306 1.305,1.406 1.024,3.059 -2.783,0.089 -2.06,-1.707 -4.081,0 1.944,-4.777 0.484,-9.293 1.023,-14.273 0.383,-3.594 2.656,-8.286 2.034,-11.2 -1.926,-9.024 -11.584,-7.963 -18.333,-13.248 -0.766,-3.141 2.794,-1.955 2.033,-5.096 -1.665,-0.241 -4.409,-2.32 -6.503,-3.681 -0.216,-0.143 -0.428,-0.278 -0.629,-0.402 -0.354,-0.208 -1.266,-0.688 -1.949,-1.039 3.331,-0.802 6.255,2.61 3.984,-0.994 1.751,0.968 3.541,1.717 4.961,2.435 0.419,0.21 0.811,0.419 1.155,0.627 -0.539,-0.335 -0.73,0.479 0,1.024 1.531,1.132 4.427,2.292 5.097,1.013 -0.053,0.101 -3.183,-1.554 -3.056,-2.037 1.785,-0.919 3.226,2.591 3.948,0.458 -3.343,-0.369 -4.401,-3.022 -7.008,-4.133 4.177,-1.059 8.335,3.144 11.208,0 -2.075,0.873 -6.324,-0.879 -3.058,-2.029 0.012,1.33 2.824,1.293 3.058,0 -2.782,0.736 -2.052,-2.029 -4.075,-2.044 -1.99,2.481 -9.884,1.003 -10.023,-1.521 -0.902,-0.488 -1.668,-1.098 -2.207,-1.938 1.917,-0.684 2.702,-0.749 3.077,-0.58 -0.004,-0.01 -0.009,-0.019 -0.013,-0.031 1.857,0.08 2.906,0.381 3.53,0.765 0.171,-0.045 0.352,-0.096 0.544,-0.154 0.394,1.419 0.807,1.983 1.257,2.259 0.724,-0.148 2.579,-0.21 3.835,0.18 -4.189,-4.308 4.069,-1.909 5.092,-4.074 -1.478,-0.55 -5.258,1.197 -5.092,-1.022 3.889,-1.761 6.701,1.74 7.133,-3.054 -3.315,-0.082 -6.271,-0.52 -8.15,-2.032 3.793,-1.712 6.403,1.578 10.184,2.032 -0.084,-0.005 2.592,-1.128 4.075,-1.016 6.431,0.473 10.657,1.125 16.306,-2.034 -4.578,-2.287 -9.037,3.793 -11.209,-2.042 4.081,1.331 6.703,-1.756 9.173,-2.039 2.107,-0.227 4.499,2.016 6.116,0 -8.305,-3.774 -12.314,3.704 -21.398,0 -2.83,1.524 1.766,4.165 -1.023,5.099 -1.568,-2.136 -6.049,-0.372 -2.04,-3.06 -3.158,-0.112 -2.908,3.202 -7.132,2.042 -1.209,-4.273 4.294,-1.827 5.098,-4.081 -4.112,1.071 -1.275,-2.22 -3.058,-3.052 -2.884,-1.364 -6.378,1.623 -11.208,-1.024 5.823,-0.478 5.96,-0.323 10.184,-2.032 -0.496,3.355 5.882,4.265 6.116,1.016 -1.196,-0.156 -2.883,0.174 -3.057,-1.016 1.932,-1.928 5.94,3.585 8.154,-1.018 -1.926,-0.229 -2.249,1.144 -4.073,1.018 -0.845,-3.717 4.146,-2.166 5.092,-3.065 0.633,-0.587 -1.88,-1.997 0,-2.034 4.853,4.722 6.156,-2.813 11.207,0 -0.479,-4.219 4.768,-2.706 7.138,-4.081 0.108,1.244 0.294,2.418 2.035,2.039 2.224,-0.227 5.48,-4.6 7.131,-2.039 -1.753,-0.047 -2.621,0.79 -3.056,2.039 6.916,1.417 10.979,0.295 15.287,-3.045 -3.434,-0.652 -9.467,1.298 -11.214,-1.017 7.098,-2.028 13.5,1.951 18.333,-3.061 -1.805,-0.234 -5.098,1.021 -4.068,-2.042 15.057,-2.904 29.127,-6.801 44.591,-9.301 v 291.637 c -0.723,-0.356 -1.344,-0.659 -1.802,-0.861"
           style="fill:#ed1f24;fill-opacity:1;fill-rule:nonzero;stroke:none"
           id="path6255"
           inkscape:connector-curvature="0" /><path
           d="m 34.106,247.176 h -6.953 c -0.424,-0.28 -0.835,-0.535 -1.227,-0.715 2.424,-0.459 4.836,-0.265 8.18,0.715"
           style="fill:#ed1f24;fill-opacity:1;fill-rule:nonzero;stroke:none"
           id="path6257"
           inkscape:connector-curvature="0" /><path
           d="m 542.486,245.437 c 0.006,0.717 -0.118,1.281 -0.317,1.739 h -2.944 c 1.001,-0.666 2.062,-1.272 3.261,-1.739"
           style="fill:#ed1f24;fill-opacity:1;fill-rule:nonzero;stroke:none"
           id="path6259"
           inkscape:connector-curvature="0" /><path
           d="m 543.739,424.484 c -4.412,-0.481 -8.78,-0.833 -12.37,0 z m 8.945,-41.494 c 1.913,0.534 8.286,1.783 6.1,3.053 -1.197,-0.148 -2.308,-1.807 -3.051,0 -0.227,3.674 9.861,2.304 7.133,5.093 -4.333,-0.228 -13.961,-2.077 -21.397,0 4.033,0.023 4.47,2.901 3.064,4.079 0.43,-1.687 -3.807,0.089 -4.081,1.018 1.52,0.184 3.756,-0.365 4.081,1.017 -3.207,-0.484 -4.165,1.269 -5.097,3.059 1.662,-0.743 4.425,2.022 2.033,2.028 0.443,-1.682 -3.8,0.096 -4.08,1.029 2.657,0.437 7.837,-0.137 11.212,2.034 6.23,1.872 -6.224,-0.19 -6.115,2.034 3.301,-0.58 4.743,0.702 7.133,1.023 6.867,-0.334 2.272,1.813 -2.036,1.023 -4.595,-1.548 -15.83,-1.806 -20.372,0 6.216,1.903 16.148,0.893 20.372,2.03 -8.572,1.688 4.825,0.824 4.071,4.08 -2.436,3.154 -5.399,-1.023 -8.15,-1.017 -3.489,0.007 -6.595,2.375 -10.186,3.052 5.6,0.18 11.861,-0.312 14.265,3.063 -0.202,3.188 -5.946,0.851 -7.131,3.052 5.792,0.663 14.24,-1.341 18.332,1.03 -2.169,0.562 -4.716,0.61 -7.429,0.451 0.098,0.072 0.208,0.134 0.299,0.214 h -3.053 c 2.715,2.626 -2.346,1.072 -1.018,5.091 2.023,-0.01 1.293,-2.775 4.071,-2.032 0.452,3.846 -5.314,1.464 -6.103,4.074 4.009,-0.281 7.07,0.388 8.148,3.051 -3.529,0.551 -9.67,-1.514 -10.195,2.04 7.706,0.449 13.359,2.945 18.345,6.11 -2.705,-1.209 -5.661,0.191 -9.165,0 -10.587,-0.564 -24.684,-3.471 -28.533,4.074 1.953,0.843 10.125,0.658 8.151,2.046 -6.247,1.455 -12.177,-2.735 -16.305,0 4.171,-1.232 7.443,2.154 11.214,3.058 2.123,0.502 3.858,-0.377 6.107,0 1.495,0.245 3.633,1.724 5.087,2.036 2.382,0.496 6.958,-1.959 7.146,2.039 -8.345,-2.86 -16.546,0.598 -24.463,1.018 -3.123,0.16 -6.735,-1.425 -10.183,-1.018 -1.992,0.228 -4.375,0.916 -6.115,2.041 -2.023,2.345 0.257,1.119 1.018,3.05 -4.597,-0.196 -12.24,-2.674 -16.301,0 5.285,1.663 10.542,-1.231 15.283,2.035 -3.221,2.173 -9.585,-3.422 -5.099,2.042 -3.422,0.634 -9.46,-1.312 -11.207,1.023 1.701,0.114 9.234,-0.564 6.114,1.01 -4.456,0.634 -8.148,2.041 -12.229,3.064 4.046,0.705 11.291,-1.777 12.229,2.027 -5.927,0.186 -11.258,-1.902 -16.303,0 3.086,1.348 8.735,0.108 11.212,2.047 -1.806,0.228 -5.104,-1.035 -4.074,2.03 3.405,-0.245 6.42,-2.184 8.15,1.022 -3.464,2.478 -7.181,-1.256 -10.192,2.035 3.245,1.52 9.504,0.01 12.224,2.04 -3.199,-1.167 -2.469,1.609 -4.073,2.041 -1.687,-1.785 -4.367,0.711 -7.133,1.017 -1.243,0.137 -1.436,-1.113 -3.051,-1.017 -5.063,0.299 -9.681,1.866 -12.231,2.034 0.767,2.303 5.709,0.401 8.15,1.018 1.431,-0.079 3.903,0.227 2.039,1.023 -1.691,-0.007 -3.397,0 -5.09,0 -1.03,0.801 -2.549,0.633 -4.081,3.063 4.745,1.101 8.415,-1.777 10.192,0 0.166,0.149 -8.273,2.041 -9.163,1.017 -1.31,0.053 -1.413,1.299 -3.063,1.018 -2.658,-2.495 -2.251,0.208 -3.053,1.016 -2.159,2.154 -10.542,-2.238 -10.195,2.041 6.06,0.048 13.055,-0.838 15.282,3.057 2.081,-0.927 6.688,-2.045 8.15,1.017 -3.363,-1.441 -2.536,2.077 -4.069,2.036 0.371,0.011 -1.317,-3.896 -4.081,-2.036 0.848,3.268 0.873,2.107 -1.018,4.076 10.784,0.234 22.774,-0.556 29.547,1.01 -7.752,3.531 -15.844,1.431 -24.448,1.023 -10.698,-0.496 -21.771,-0.539 -32.807,-0.32 V 155.289 c 0.267,0.709 0.683,1.214 1.225,0.903 0.633,-1.745 3.076,-1.691 4.069,-3.059 -0.609,-1.528 -5.121,-4.254 -3.052,-5.094 1.521,1.195 2.872,2.557 4.069,4.074 1.167,-3.199 -1.597,-2.481 -2.034,-4.074 3.099,-3.196 4.397,5.878 8.151,2.028 0.299,6.499 3.241,10.354 9.178,11.214 1.114,2.956 1.255,6.888 5.086,7.138 -0.17,-2.627 -4.321,-6.455 -2.036,-8.16 1.712,3.613 3.651,7.114 5.099,10.182 0.526,1.144 1.819,1.905 2.034,3.072 0.036,0.208 -1.632,0.746 -1.017,2.027 0.21,0.449 1.616,1.394 2.035,2.046 2.045,3.16 2.956,6.619 6.111,8.15 1.368,-7.511 -3.42,-14.216 -2.042,-18.34 3.015,3.095 1.974,10.26 5.096,13.235 3.059,-8.238 -3.241,-17.465 -2.033,-23.426 2.323,4.13 1.593,8.607 3.051,13.236 0.743,2.353 3.15,4.655 4.075,7.145 1.131,3.018 0.193,4.304 1.023,6.116 1.211,2.61 3.578,6.083 4.076,8.144 0.376,1.603 -0.402,3.505 0,5.091 0.101,0.407 1.908,2.495 2.032,3.063 0.665,2.919 0.103,6.235 1.025,9.168 0.096,0.285 1.915,0.603 2.034,1.018 1.137,4.173 0.323,6.009 1.017,9.171 1.617,7.222 5.379,13.422 6.117,20.38 2.894,0.856 6.18,1.927 7.13,1.017 0.837,-0.795 0.935,-0.304 2.041,-1.017 0.903,-0.58 2.549,-2.769 3.057,-3.056 1.748,-1.006 4.237,-0.91 6.115,-2.042 1.612,-0.969 2.867,-3.518 4.075,-4.075 2.712,-1.239 6.418,-0.986 9.163,-2.034 4.941,-1.878 7.885,-5.422 12.23,-4.074 -2.885,1.527 -4.709,4.116 -9.167,4.074 -3.543,3.746 -6.931,7.732 -11.209,11.207 -0.928,0.742 -3.738,0.963 -5.092,2.03 -1.494,1.183 -2.894,3.157 -3.063,5.096 3.808,-0.653 5.003,-4.5 9.175,-2.035 1.202,-1.92 5.283,-6.185 7.126,-4.074 -1.701,1.651 -4.692,3.075 -7.126,5.092 -2.318,1.915 -5.871,4.022 -5.094,6.11 3.305,-2.832 8.69,-8.935 12.22,-8.143 -3.674,1.111 -1.808,3.069 -3.055,4.07 0.619,-0.491 -2.331,-0.959 -2.032,1.021 5.72,-0.173 -3.543,3.446 0,4.075 1.195,-0.15 2.308,-1.813 3.051,0 -1.071,0.811 -2.815,0.959 -3.633,2.025 h 2.084 c 0.339,-0.513 0.704,-0.999 1.549,-1.001 0.106,0.355 0.153,0.685 0.17,1.001 h 1.748 c -0.618,0.594 -1.262,0.975 -1.901,1.274 -0.054,0.164 -0.112,0.327 -0.189,0.475 h -0.943 c -1.117,0.437 -2.163,0.84 -2.953,1.932 0.346,1.981 -0.169,9.542 -4.074,7.133 1.667,0.739 4.427,-2.025 2.032,-2.037 -3.063,1.293 -3.506,4.088 -2.032,6.115 1.519,-2.211 5.099,-2.375 5.091,-6.115 5.653,1.235 6.186,-2.645 9.167,-4.074 -0.909,4.859 -5.865,5.678 -8.151,9.165 1.353,2.495 3.793,-1.118 4.071,1.024 -4.495,3.649 -9.18,7.115 -13.238,11.201 5.59,1.515 4.464,-3.679 8.151,-4.068 2.717,-0.121 -2.814,3.992 -1.017,4.068 1.293,0.06 3.493,-7.222 7.12,-4.068 -4.92,2.877 -7.085,8.528 -11.194,12.218 1.19,1.174 3.602,1.162 6.107,1.024 -0.914,-3.071 2.401,-1.708 4.071,-3.064 2.652,-2.125 4.689,-7.436 7.144,-6.11 -4.165,3.718 -8.814,9.21 -13.248,11.202 -1.013,0.468 -3.507,3.482 -4.074,4.088 -1.186,1.237 -1.397,3.332 -3.06,4.074 3.633,0.521 6.201,-5.272 8.151,-3.057 -0.873,1.256 -6.565,2.816 -4.076,4.074 2.22,-1.221 5.923,-6.242 8.145,-4.074 -1.975,-0.119 -3.023,2.178 -4.069,3.057 -1.305,1.082 -4.267,1.686 -4.076,4.076 3.442,1.628 4.344,-4.327 6.108,-1.024 -3.623,1.478 -6.059,4.128 -8.147,7.135 2.369,0.337 4.391,1.043 5.098,3.055 -4.238,0.184 -5.606,-1.766 -8.155,1.022 -0.744,2.041 1.955,1.976 2.039,3.058 -0.023,-0.268 -1.944,0.562 -2.039,1.015 -0.391,1.876 1.626,4.647 2.039,7.129 -4.032,-1.341 -1.543,10.597 -1.018,11.219 0.577,0.67 3.359,-0.587 3.06,1.01 -1.754,-0.059 -2.616,0.79 -3.06,2.035 3.871,4.273 -0.227,16.533 7.134,17.329 -1.125,5.54 2.147,6.671 4.068,9.161 -1.753,0.406 -2.609,-1.508 -3.051,0 6.146,2.776 13.548,-1.52 18.335,3.057 -6.667,0.552 -11.598,-0.621 -17.319,-1.017 -1.74,2.04 -1.484,8.263 1.016,9.179 8.553,-0.18 13.794,2.536 20.382,3.052 5.954,0.461 11.273,-0.88 13.246,2.038 -7.502,0.793 -10.002,-2.506 -15.278,0"
           style="fill:#ed1f24;fill-opacity:1;fill-rule:nonzero;stroke:none"
           id="path6261"
           inkscape:connector-curvature="0" /><path
           d="m 28.046,253.563 c -0.03,0.007 -0.061,0.014 -0.093,0.021 -1.217,-0.664 -0.729,-0.438 0.093,-0.021"
           style="fill:#ed1f24;fill-opacity:1;fill-rule:nonzero;stroke:none"
           id="path6263"
           inkscape:connector-curvature="0" /><path
           d="m 441.428,152.876 c -0.003,-0.005 -0.006,-0.005 -0.009,-0.007 v -0.003 c 0.002,0.005 0.007,0.005 0.009,0.01"
           style="fill:#ed1f24;fill-opacity:1;fill-rule:nonzero;stroke:none"
           id="path6265"
           inkscape:connector-curvature="0" /><path
           d="m 105.388,182.678 c 1.519,0.168 3.77,-0.365 4.081,1.024 -8.725,-0.568 -15.306,6.412 -22.415,4.074 5.631,-1.842 11.918,-3.026 17.317,-5.098 -1.807,-0.235 -5.099,1.029 -4.081,-2.047 2.692,-1.578 16.652,-4.013 16.312,-1.01 -2.082,-0.872 -5.625,1.605 -3.064,2.034 3.937,-2.805 8.629,-1.999 13.247,-3.056 0.299,-0.066 1.556,-1.941 2.047,-2.041 1.795,-0.354 4.117,0.568 6.103,0 1.388,-0.384 2.944,-2.597 4.081,-3.045 2.9,-1.172 5.271,-0.618 7.911,-0.847 v 5.203 c -14.393,1.363 -29.434,4.526 -41.539,4.809"
           style="fill:#ed1f24;fill-opacity:1;fill-rule:nonzero;stroke:none"
           id="path6267"
           inkscape:connector-curvature="0" /><path
           d="m 142.079,184.72 c 1.462,-0.143 3.095,-0.272 4.848,-0.401 v 1.479 c -1.967,-0.19 -3.697,-0.541 -4.848,-1.078"
           style="fill:#ed1f24;fill-opacity:1;fill-rule:nonzero;stroke:none"
           id="path6269"
           inkscape:connector-curvature="0" /><path
           d="m 140.032,195.919 c -1.58,0.265 -2.657,1.67 -4.068,2.042 -1.598,0.419 -3.495,-0.33 -5.098,0 -1.771,0.357 -3.267,2.512 -5.098,3.057 -1.245,0.372 -2.801,-0.281 -4.069,0 -0.389,0.088 -2.524,1.873 -3.063,2.035 -3.717,1.082 -5.817,0.275 -9.167,1.023 -1.154,0.251 -2.275,1.937 -3.065,2.033 -1.854,0.247 -2.296,-0.957 -4.068,-1.015 -1.143,-0.044 -1.58,1.433 -2.046,0 4.798,-1.204 1.926,-2.958 0,-5.094 7.073,0.892 8.712,-4.158 14.265,-2.039 -1.974,-3.405 0.371,-0.552 3.064,-1.024 1.339,-0.227 2.069,-1.754 3.063,-2.028 1.531,-0.437 3.59,0.538 5.086,0 0.275,-0.107 0.683,-1.831 1.017,-2.039 3.363,-2.042 7.551,0.081 10.197,0 1.98,-0.08 5.372,-1.581 8.143,-2.042 0.611,-0.099 1.21,-0.189 1.802,-0.278 v 5.028 c -2.329,-0.023 -4.633,-0.03 -6.895,0.341"
           style="fill:#ed1f24;fill-opacity:1;fill-rule:nonzero;stroke:none"
           id="path6271"
           inkscape:connector-curvature="0" /><path
           d="m 388.637,508.982 c 8.156,0.671 19.004,-1.351 25.472,1.025 -1.784,0.927 -5.079,0.34 -6.11,2.028 6.397,3.458 19.118,0.58 26.484,3.057 -3.464,1.389 -7.515,0.012 -9.168,0 -2.092,-0.011 -5.373,0.706 -7.127,1.017 -16.843,3.017 -33.225,3.058 -51.965,3.058 -8.104,0 -16.981,0.808 -24.449,0 -2.944,-0.317 -6.173,-1.794 -9.179,-2.034 -7.079,-0.574 -14.42,0.772 -21.398,0 -4.265,-0.479 -7.861,-2.58 -12.213,-3.052 -9.362,-1.023 -19.272,0.215 -28.54,-1.03 -2.172,-0.28 -3.931,-1.65 -6.108,-2.034 -4.1,-0.711 -9.156,0.192 -11.214,0 -3.34,-0.298 -6.989,-1.765 -10.184,-2.035 -5.696,-0.484 -11.752,0.528 -17.316,0 -4.679,-0.447 -10.172,-2.423 -15.295,-3.063 -12.757,-1.579 -25.62,-5.839 -35.649,-5.086 -0.18,-5.655 -8.533,0.91 -8.156,-1.017 0.628,-0.059 1.214,-0.162 1.023,-1.023 -0.269,-1.436 -2.238,-1.161 -3.058,-2.034 -4.793,-0.593 -7.191,-1.096 -10.189,-2.041 -2.394,-0.753 -5.304,-2.198 -7.371,-3.214 V 199.867 c 5.002,-0.806 10.146,-1.471 15.52,-1.906 0.143,-1.352 -4.141,-3.07 -1.017,-4.067 0.598,5.341 19.657,2.781 20.38,2.025 0.622,-0.643 -1.88,-1.967 0,-2.025 0.491,1.202 1.077,2.301 2.04,3.043 4.278,-0.988 10.046,0 13.242,0 1.077,0 2.663,-1.119 3.053,-1.018 0.322,0.092 0.669,3.705 3.062,2.042 -0.383,-3.31 -3.578,-2.072 -5.099,-3.052 -0.837,-0.545 0.324,-1.693 -1.016,-2.039 0.383,0.096 -0.526,2.266 -2.035,2.039 -1.328,-0.211 -0.956,-1.653 -2.039,-2.039 -0.294,2.09 -2.724,2.027 -4.077,3.049 -0.405,-1.751 1.509,-2.614 0,-3.049 -6.844,0.316 -10.895,0.973 -17.322,1.024 -1.777,0.002 -3.29,-1.242 -5.097,-1.024 -1.336,0.154 -1.383,1.075 -3.053,1.024 -1.842,-0.075 -2.344,-1.223 -4.08,-1.024 -0.227,0.023 -2.632,1.932 -3.05,2.039 -3.157,0.763 -6.306,0.701 -9.412,0.669 v -5.028 c 6.988,-1.036 12.703,-1.402 18.572,-2.774 -5.696,0.903 -3.793,-1.036 -5.091,-3.056 -2.778,1.068 -8.801,1.531 -13.481,1.078 v -1.479 c 9.809,-0.722 23.458,-1.522 32.848,-5.72 -4.265,-0.205 -15.389,0.903 -8.156,-2.041 -3.302,-0.576 -5.127,0.31 -6.12,2.041 0.095,-0.326 -2.28,-3.173 -4.069,-2.041 -0.647,0.418 1.903,2.088 0,2.041 -0.533,-0.014 -1.197,-2.091 -3.057,-2.041 -3.65,0.114 -7.067,4.073 -11.207,2.041 1.202,-0.15 2.895,0.177 3.057,-1.013 -1.094,0.082 -2.193,0.178 -3.296,0.283 v -5.203 c 0.411,-0.035 0.828,-0.089 1.256,-0.171 2.476,1.368 0.634,2.027 2.04,3.045 2.567,0.384 4.511,-1.642 7.131,-2.027 3.765,-0.575 8.714,1.048 14.265,1.009 6.984,-0.037 15.733,-1.447 22.409,0 0.557,0.124 -0.173,1.94 1.029,2.036 5.231,0.46 14.014,-1.467 21.386,-1.018 7.815,0.498 11.65,1.328 15.282,-3.045 -15.294,-3.141 -33.526,-3.082 -49.915,-4.076 -4.919,-0.305 -9.252,-2.278 -13.247,-1.023 0.784,0.228 2.01,0.024 2.034,1.023 -4.374,-2.634 -8.317,0.119 -11.208,-3.068 17.203,-0.468 36.804,1.573 57.054,3.068 3.889,0.283 10.381,0.605 15.282,1.013 11.148,0.932 27.231,5.851 36.685,3.063 -0.785,0.225 -2.13,-1.006 -2.035,-1.029 2.112,-0.414 3.621,1.889 5.092,0 -2.602,-0.456 -4.69,-1.431 -6.114,-3.047 3.626,-0.865 6.102,2.951 7.131,-1.023 -4.918,-0.179 -6.953,-3.236 -10.189,-5.09 4.827,0.518 4.069,1.279 2.041,-2.047 2.895,0.178 4.247,1.864 7.131,2.047 0.007,-1.025 -0.826,-1.221 -1.023,-2.047 3.428,-0.108 6.288,2.961 8.15,2.047 0.312,-0.158 -1.065,-2.047 -1.011,-2.047 2.8,-0.138 3.459,0.695 7.132,1.022 -0.06,-1.304 -1.305,-1.41 -1.023,-3.052 3.626,-1.585 0.628,3.459 3.057,3.052 2.112,-0.61 6.695,1.256 7.138,-1.022 -2.889,0.849 -2.651,-1.436 -5.097,-1.017 -1.263,-3.291 3.296,-0.779 2.038,-4.077 -1.662,0.749 -4.438,-2.022 -2.038,-2.032 0.136,1.675 6.993,1.675 7.126,0 -2.812,1.338 -3.487,-4.034 -2.029,-1.02 2.974,-0.273 3.124,2.304 6.11,2.037 -0.311,-1.232 2.944,-3.514 3.058,-1.017 -5.415,1.698 6.025,2.028 9.161,2.032 -1.718,-3.548 -0.371,-3.56 2.046,-5.098 -1.712,-1.406 -6.762,-4.701 -5.097,-6.109 3.099,4.208 13.037,5.26 13.245,9.175 5.421,0.692 7.217,5.012 14.265,4.072 -0.149,-1.207 -1.818,-2.307 0,-3.055 2.88,3.637 7.821,5.192 10.184,7.131 2.862,2.334 5.464,4.446 8.151,6.115 2.513,1.551 3.488,2.697 5.098,4.07 1.124,0.972 2.973,1.053 4.076,2.047 2.6,2.31 5.533,6.473 7.137,8.142 1.412,1.479 3.111,1.987 4.069,3.065 1.208,1.34 1.806,3.548 3.057,5.091 1.293,1.585 2.878,2.506 4.075,4.083 3.447,4.498 6.76,9.224 9.173,13.239 2.273,3.775 4.398,6.81 5.098,11.2 6.168,2.322 10.96,6.02 18.339,7.141 2.548,-9.718 -1.378,-19.599 -2.039,-29.555 -0.092,-1.286 1.12,-1.4 1.016,-3.049 -0.364,-6.046 -2.245,-13.668 -1.016,-19.357 0.322,-1.516 1.819,-2.376 2.039,-4.081 0.395,-3.083 -1.149,-7.245 1.017,-10.19 -0.18,2.816 1.568,3.505 3.052,2.039 -0.848,-1.185 -1.34,-2.734 -1.013,-5.089 5.536,1.558 1.959,-4.664 2.035,-5.096 -0.019,0.05 1.845,-1.709 2.042,-2.039 3.244,-5.601 -1.892,-12.344 -1.03,-19.365 6.23,-0.788 3.661,7.217 5.098,11.207 1.029,1.123 4.382,5.005 2.036,6.123 0.316,-1.24 -2.94,-3.517 -3.054,-1.022 0.493,4.252 3.339,6.174 6.117,8.15 -2.059,0.83 0.641,5.372 1.016,7.131 -3.829,0.777 -0.7,-5.409 -5.096,-4.076 0.13,1.695 -3.299,6.481 1.017,6.115 -0.139,-1.207 -1.809,-2.308 0,-3.061 4.355,2.687 4.808,6.862 5.097,9.173 3.153,-2.814 3.926,-8.647 3.051,-11.203 -0.036,-0.124 -2.023,0.096 -2.034,0 -0.144,-2.442 1.246,-4.815 1.017,-7.133 -0.138,-1.448 -1.7,-2.142 -2.034,-4.074 -0.275,-1.656 0.215,-3.44 0,-5.096 3.998,1.398 3.002,6.371 5.097,9.17 0.645,0.853 2.107,0.91 2.856,1.77 v 0.003 c -0.468,-0.442 -0.436,1.26 0,2.42 v 351.333 c -18.321,0.364 -36.542,1.446 -52.782,2.36"
           style="fill:#ffffff;fill-opacity:1;fill-rule:nonzero;stroke:none"
           id="path6273"
           inkscape:connector-curvature="0" /><path
           d="m 294.168,446.619 -20.092,-37.474 c -2.28,-4.073 -6.364,-3.695 -10.449,-1.421 l -14.546,7.533 10.842,-57.56 c 2.279,-10.516 -5.035,-10.516 -8.645,-5.969 l -25.387,28.419 -4.121,-14.432 c -0.475,-1.895 -2.564,-3.885 -5.7,-3.412 l -32.1,6.75 8.431,-30.654 c 1.805,-6.82 3.213,-9.645 -1.822,-11.443 l -11.441,-5.379 55.258,-44.885 c 2.188,-1.697 3.293,-4.752 2.514,-7.516 l -4.836,-15.872 c 19.027,2.193 36.074,5.493 55.111,7.525 1.68,0.181 4.494,-2.593 4.482,-4.541 l -2.521,-58.147 h 9.251 l -1.457,58.023 c -0.011,1.945 2.541,4.846 4.222,4.665 19.035,-2.032 36.084,-5.332 55.109,-7.525 l -4.834,15.872 c -0.779,2.764 0.325,5.819 2.513,7.516 l 55.259,44.885 -11.442,5.379 c -5.036,1.798 -3.627,4.623 -1.822,11.443 l 8.431,30.654 -32.101,-6.75 c -3.133,-0.473 -5.224,1.517 -5.699,3.412 l -4.121,14.432 -25.387,-28.419 c -3.609,-4.547 -10.923,-4.547 -8.644,5.969 l 10.842,57.56 -14.546,-7.533 c -4.085,-2.274 -8.17,-2.652 -10.449,1.421"
           style="fill:#ed1f24;fill-opacity:1;fill-rule:nonzero;stroke:none"
           id="path6275"
           inkscape:connector-curvature="0" /></g></g></g></svg>